#N canvas 2 23 1280 751 10;
#X declare -lib cyclone;
#X declare -lib mrpeach;
#X declare -lib moocow;
#X obj -31 -62 r music;
#X obj -31 2 sel 0 1 2;
#X msg -31 31 music1.wav;
#X msg 38 31 music2.wav;
#X msg 108 32 music3.wav;
#X msg -31 77 open \$1;
#X msg -31 122 start;
#X obj -31 147 readsf~ 2;
#X obj -31 273 s~ musicL;
#X obj 30 273 s~ musicR;
#X obj 201 -63 r~ musicL;
#X obj 268 -63 r~ musicR;
#X obj 351 -61 r width;
#X obj 351 -38 sel 0 1 2 3;
#X msg 351 -12 1;
#X msg 379 -12 0.75;
#X msg 411 -12 0.5;
#X msg 440 -12 0.25;
#X obj 202 79 *~;
#X obj 229 79 *~;
#X obj 269 80 *~;
#X obj 300 79 *~;
#X obj 411 23 expr 1-$f1;
#X obj 351 27 f;
#X obj -32 333 r~ musicL;
#X obj 35 333 r~ musicR;
#X obj -32 362 s~ originL;
#X obj 35 363 s~ originR;
#X obj 202 250 s~ effectL;
#X obj 269 250 s~ effectR;
#X obj 202 212 *~;
#X obj 269 212 *~;
#X obj 349 79 r volume;
#X obj 349 101 sel 0 1 2 3 4 5;
#X msg 349 129 2;
#X msg 376 129 1;
#X msg 401 129 0;
#X msg 426 129 -1;
#X msg 453 129 -2;
#X msg 481 129 -3;
#X obj 349 165 + 100;
#X obj 349 189 dbtorms;
#X floatatom -31 -27 5 0 0 0 - - -;
#X obj 19 -63 r restart;
#X obj 20 173 s restart;
#X obj -205 322 cnv 15 160 390 empty empty empty 20 12 0 14 -204786
-66577 0;
#X floatatom -202 448 5 0 0 0 - - -;
#X obj -202 469 % 72;
#X obj -202 491 % 3;
#X floatatom -202 651 5 0 0 0 - - -;
#X obj -153 491 / 3;
#X obj -153 513 int;
#X floatatom -153 535 5 0 0 0 - - -;
#X obj -153 556 % 4;
#X floatatom -153 651 5 0 0 0 - - -;
#X obj -103 556 / 4;
#X obj -103 578 int;
#X floatatom -103 600 5 0 0 0 - - -;
#X obj -103 621 % 6;
#X floatatom -103 646 5 0 0 0 - - -;
#X obj -201 344 import cyclone;
#X obj -202 420 urn 72;
#X obj -202 398 bng 15 250 50 0 empty empty empty 17 7 0 10 -262144
-1 -1;
#X obj -202 686 s music;
#X obj -153 686 s width;
#X obj -103 687 s volume;
#X obj 756 302 output~;
#X obj 773 238 bng 30 250 50 0 empty empty 10 -10 45 1 30 -262144 -258113
-86277;
#X obj 759 16 hradio 30 1 0 2 empty empty Switcher 0 -12 1 22 -262144
-4160 -1 0;
#X obj 714 337 bng 30 250 50 0 empty empty Reset 0 40 1 14 -262144
-1 -1;
#X obj 841 337 bng 30 250 50 0 empty empty Save 0 40 1 14 -262144 -1
-1;
#X obj 681 75 hradio 30 1 0 7 empty empty 音像幅 90 -12 1 12 -262144
-260097 -1 0;
#X obj 681 127 hradio 30 1 0 7 empty empty 包まれ感 80 -12 1 12
-262144 -260097 -1 0;
#X obj 680 179 hradio 30 1 0 7 empty empty 空間の広がり 75 -12
1 12 -262144 -260097 -1 0;
#X obj 932 111 s ans1;
#X obj 932 159 s ans2;
#X obj 931 216 s ans3;
#X obj 933 53 s switcher;
#X obj 931 273 s next;
#X obj 518 192 r~ masterL;
#X obj 585 192 r~ masterR;
#X obj 713 440 s reset;
#X obj 840 443 s save;
#X obj 746 1074 binfile;
#X obj 746 905 list prepend add;
#X obj 746 1036 list trim;
#X obj 951 907 list length;
#X obj 901 907 + 1;
#X obj 746 1007 list append 44;
#X msg 1027 1032 clear;
#X obj 746 826 iter;
#X obj 746 848 t a b;
#X msg 890 882 1;
#X obj 746 982 spigot;
#X obj 779 959 <;
#X obj 874 959 ==;
#X obj 841 982 spigot;
#X obj 841 1006 list append 13;
#X obj 746 879 any2bytes 128 -1;
#X obj 746 787 t a b a;
#X obj 1000 735 t b b;
#X msg 1070 1032 write \$1;
#X obj 1070 737 savepanel;
#X obj 1000 711 r reset;
#X obj 1070 713 r save;
#X obj 874 907 i 1;
#X msg 746 578 set \$1;
#X msg 746 601 10;
#X msg 758 766 num music width volume ans1 ans2 ans3;
#X obj 746 736 pack f f f f f f f;
#X obj 763 620 r music;
#X obj 781 640 r width;
#X obj 798 660 r volume;
#X obj 816 681 r ans1;
#X obj 833 700 r ans2;
#X obj 851 717 r ans3;
#X obj 654 1074 import mrpeach;
#X obj 659 879 import moocow;
#X obj -168 447 s end;
#X obj -155 372 r reset;
#X msg -155 397 clear;
#X obj 746 557 r count;
#X obj -202 371 r rand;
#X obj 692 557 r write;
#X obj 294 409 r switcher;
#X obj -30 408 r~ originL;
#X obj 49 408 r~ originR;
#X obj 134 409 r~ effectL;
#X obj 213 409 r~ effectR;
#X obj -30 466 *~;
#X obj 49 466 *~;
#X obj 134 467 *~;
#X obj 213 467 *~;
#X obj 294 436 expr 1-$f1;
#X obj -30 539 s~ masterL;
#X obj 50 539 s~ masterR;
#X obj -204 -73 cnv 15 160 390 empty empty empty 20 12 0 14 -204786
-66577 0;
#X obj -193 15 i;
#X obj -159 15 + 1;
#X msg -178 -9 0;
#X obj -178 -32 r reset;
#X obj -193 -55 r next;
#X obj -146 212 s count;
#X obj -193 212 s rand;
#X obj -89 158 s write;
#X obj -89 109 > 0;
#X obj -89 133 sel 1;
#X obj -193 53 t f f f;
#X obj -193 157 spigot;
#X obj -193 183 t b f;
#X obj -145 155 s end;
#X msg 520 139 label \$1;
#X obj 520 110 tosymbol;
#X obj 520 47 r reset;
#X msg 520 69 GO;
#X obj 572 46 r end;
#X msg 572 68 END;
#X msg 579 138 label \$1;
#X obj 579 87 r count;
#X obj -160 108 < 72;
#X obj -145 131 sel 0;
#X obj 579 110 tosymbol;
#X obj -31 101 t b a;
#X obj -31 56 tosymbol;
#X connect 0 0 42 0;
#X connect 1 0 2 0;
#X connect 1 1 3 0;
#X connect 1 2 4 0;
#X connect 2 0 163 0;
#X connect 3 0 163 0;
#X connect 4 0 163 0;
#X connect 5 0 162 0;
#X connect 6 0 7 0;
#X connect 7 0 8 0;
#X connect 7 1 9 0;
#X connect 7 2 44 0;
#X connect 10 0 18 0;
#X connect 10 0 19 0;
#X connect 11 0 20 0;
#X connect 11 0 21 0;
#X connect 12 0 13 0;
#X connect 13 0 14 0;
#X connect 13 1 15 0;
#X connect 13 2 16 0;
#X connect 13 3 17 0;
#X connect 14 0 22 0;
#X connect 14 0 23 0;
#X connect 15 0 22 0;
#X connect 15 0 23 0;
#X connect 16 0 22 0;
#X connect 16 0 23 0;
#X connect 17 0 22 0;
#X connect 17 0 23 0;
#X connect 18 0 30 0;
#X connect 19 0 31 0;
#X connect 20 0 31 0;
#X connect 21 0 30 0;
#X connect 22 0 19 1;
#X connect 22 0 21 1;
#X connect 23 0 20 1;
#X connect 23 0 18 1;
#X connect 24 0 26 0;
#X connect 25 0 27 0;
#X connect 30 0 28 0;
#X connect 31 0 29 0;
#X connect 32 0 33 0;
#X connect 33 0 34 0;
#X connect 33 1 35 0;
#X connect 33 2 36 0;
#X connect 33 3 37 0;
#X connect 33 4 38 0;
#X connect 33 5 39 0;
#X connect 34 0 40 0;
#X connect 35 0 40 0;
#X connect 36 0 40 0;
#X connect 37 0 40 0;
#X connect 38 0 40 0;
#X connect 39 0 40 0;
#X connect 40 0 41 0;
#X connect 41 0 31 1;
#X connect 41 0 30 1;
#X connect 42 0 1 0;
#X connect 43 0 42 0;
#X connect 46 0 47 0;
#X connect 47 0 48 0;
#X connect 47 0 50 0;
#X connect 48 0 49 0;
#X connect 49 0 63 0;
#X connect 50 0 51 0;
#X connect 51 0 52 0;
#X connect 52 0 53 0;
#X connect 52 0 55 0;
#X connect 53 0 54 0;
#X connect 54 0 64 0;
#X connect 55 0 56 0;
#X connect 56 0 57 0;
#X connect 57 0 58 0;
#X connect 58 0 59 0;
#X connect 59 0 65 0;
#X connect 61 0 46 0;
#X connect 61 1 118 0;
#X connect 62 0 61 0;
#X connect 67 0 78 0;
#X connect 68 0 77 0;
#X connect 69 0 81 0;
#X connect 70 0 82 0;
#X connect 71 0 74 0;
#X connect 72 0 75 0;
#X connect 73 0 76 0;
#X connect 79 0 66 0;
#X connect 80 0 66 1;
#X connect 84 0 93 0;
#X connect 84 0 96 0;
#X connect 85 0 83 0;
#X connect 86 0 94 1;
#X connect 86 0 95 1;
#X connect 87 0 105 1;
#X connect 88 0 85 0;
#X connect 89 0 83 0;
#X connect 90 0 91 0;
#X connect 91 0 98 0;
#X connect 91 1 105 0;
#X connect 92 0 105 1;
#X connect 93 0 88 0;
#X connect 94 0 93 1;
#X connect 95 0 96 1;
#X connect 96 0 97 0;
#X connect 97 0 85 0;
#X connect 98 0 84 0;
#X connect 99 0 90 0;
#X connect 99 1 92 0;
#X connect 99 2 86 0;
#X connect 100 0 108 0;
#X connect 100 1 89 0;
#X connect 101 0 83 0;
#X connect 102 0 101 0;
#X connect 103 0 100 0;
#X connect 104 0 102 0;
#X connect 105 0 87 0;
#X connect 105 0 94 0;
#X connect 105 0 95 0;
#X connect 106 0 107 0;
#X connect 107 0 109 0;
#X connect 108 0 99 0;
#X connect 109 0 99 0;
#X connect 110 0 109 1;
#X connect 111 0 109 2;
#X connect 112 0 109 3;
#X connect 113 0 109 4;
#X connect 114 0 109 5;
#X connect 115 0 109 6;
#X connect 119 0 120 0;
#X connect 120 0 61 0;
#X connect 121 0 106 0;
#X connect 122 0 62 0;
#X connect 123 0 107 0;
#X connect 124 0 133 0;
#X connect 124 0 129 1;
#X connect 124 0 130 1;
#X connect 125 0 129 0;
#X connect 126 0 130 0;
#X connect 127 0 131 0;
#X connect 128 0 132 0;
#X connect 129 0 134 0;
#X connect 130 0 135 0;
#X connect 131 0 134 0;
#X connect 132 0 135 0;
#X connect 133 0 131 1;
#X connect 133 0 132 1;
#X connect 137 0 138 0;
#X connect 137 0 147 0;
#X connect 138 0 137 1;
#X connect 139 0 137 1;
#X connect 140 0 139 0;
#X connect 141 0 137 0;
#X connect 145 0 146 0;
#X connect 146 0 144 0;
#X connect 147 0 148 0;
#X connect 147 1 159 0;
#X connect 147 2 145 0;
#X connect 148 0 149 0;
#X connect 149 0 143 0;
#X connect 149 1 142 0;
#X connect 151 0 67 0;
#X connect 152 0 151 0;
#X connect 153 0 154 0;
#X connect 154 0 152 0;
#X connect 155 0 156 0;
#X connect 156 0 152 0;
#X connect 157 0 67 0;
#X connect 158 0 161 0;
#X connect 159 0 148 1;
#X connect 159 0 160 0;
#X connect 160 0 150 0;
#X connect 161 0 157 0;
#X connect 162 0 6 0;
#X connect 162 1 7 0;
#X connect 163 0 5 0;
#X coords 0 -1 1 1 280 460 1 650 -40;
